<?xml version="1.0" encoding="utf-8"?>
<!-- Generator: Adobe Illustrator 20.1.0, SVG Export Plug-In . SVG Version: 6.00 Build 0)  -->
<svg version="1.1" id="Layer_1" xmlns="http://www.w3.org/2000/svg" xmlns:xlink="http://www.w3.org/1999/xlink" x="0px" y="0px"
	 viewBox="0 0 83.9 83.9" style="enable-background:new 0 0 83.9 83.9;" xml:space="preserve">
<style type="text/css">
	.st0{fill:#FFFFFF;}
</style>
<g>
	<path class="st0" d="M58.3,47.7c0,0-9.6-0.1-14.4-9.7C37.2,24.9,51,17.8,51,17.8L63.2,20L58.3,47.7z"/>
	<path class="st0" d="M0.6,34.7c-4,22.8,11.2,44.6,34,48.6c22.8,4,44.6-11.2,48.6-34c0.4-2.5,0.6-4.9,0.6-7.3
		c0-20-14.3-37.7-34.6-41.3C26.4-3.4,4.7,11.9,0.6,34.7z M35.1,80.6C13.8,76.8-0.4,56.4,3.3,35.1C7.1,13.8,27.4-0.4,48.7,3.3
		C70,7.1,84.3,27.4,80.6,48.7l0,0C76.8,70,56.4,84.3,35.1,80.6z M83.2,49.2L83.2,49.2L83.2,49.2L83.2,49.2z"/>
	<g>
		<path class="st0" d="M6,51c-0.1-0.3-0.1-0.6-0.2-0.9c-0.1-0.3-0.2-0.6-0.3-0.9l8.5-2.3l0.8,3.1c0.5,1.7,0,2.8-1.4,3.2
			c-2.2,0.6-3.1-0.9-3.7-3.1L6,51z M10.4,49.8c0.1,0.3,0.2,0.6,0.3,0.8c0.4,0.7,1.2,0.9,2,0.6c1-0.3,1.5-1,1.3-1.6l-0.2-0.8
			L10.4,49.8z"/>
		<path class="st0" d="M16.1,53.7l1.4,2.4c0.3,0.5,0.8,1.3,0.8,1.9c0,0.8-0.3,1.5-1,1.9c-1.1,0.6-2.2,0.3-3-0.6
			c-0.7,1.2-1.3,2.5-2,3.8l-0.4,0.8c-0.2-0.3-0.3-0.7-0.5-1c-0.2-0.3-0.4-0.6-0.6-1l1.6-2.7c0.2-0.3,0.5-1,0.8-1.4l0-0.1l-3.6,2.1
			c-0.1-0.3-0.3-0.6-0.4-0.9c-0.2-0.3-0.4-0.5-0.5-0.8L16.1,53.7z M13.5,57.4c0.6,1.2,1.5,1.5,2.6,0.8c0.2-0.1,0.3-0.2,0.5-0.4
			c0.8-0.7,0.2-1.5-0.2-2.2L13.5,57.4z"/>
		<path class="st0" d="M17.3,69.9c-2.1-1.9-2.5-4.4-0.6-6.6c1.7-1.9,4.5-2.3,6.9-0.1c2.8,2.4,1.9,5.1,0.6,6.6
			C22.5,71.6,19.7,71.9,17.3,69.9z M18.1,65c-1.1,1.3-1.7,3.1-0.2,4.4c1.5,1.3,3.5,0.4,4.9-1.2c1.1-1.2,1.8-3.2,0.3-4.5
			C21.7,62.5,20,62.8,18.1,65z"/>
		<path class="st0" d="M28.1,76.3c-0.3-0.2-0.6-0.3-0.9-0.4c-0.3-0.1-0.6-0.2-0.9-0.3l3.1-7.3c-0.8-0.4-1.6-0.6-2.3-0.8
			c0.1-0.2,0.2-0.3,0.3-0.5c0.1-0.2,0.1-0.3,0.2-0.5l6.1,2.6c-0.1,0.2-0.2,0.3-0.3,0.5c-0.1,0.2-0.1,0.4-0.2,0.5
			c-0.7-0.4-1.3-0.8-2-1.1L28.1,76.3z"/>
		<path class="st0" d="M39.9,70.2c-0.1,0.2-0.1,0.4-0.2,0.5c0,0.2,0,0.4,0,0.6c-0.8-0.2-1.6-0.5-2.9-0.7l-0.5,2.7l1.3,0.2
			c0.6,0.1,1.1,0.1,1.6,0.2c-0.1,0.2-0.1,0.4-0.2,0.5c0,0.2,0,0.4,0,0.6c-0.5-0.1-1-0.3-1.5-0.4l-1.3-0.2l-0.5,3.2
			c1.3,0.2,2.2,0.3,3,0.3c-0.1,0.2-0.1,0.4-0.2,0.5c0,0.2,0,0.4,0,0.6L33.6,78l1.5-8.6L39.9,70.2z"/>
		<path class="st0" d="M49.1,77l-0.2,1.1c-0.7,0.5-1.6,0.7-2.5,0.8c-2.7,0.3-5-1.2-5.2-3.8c-0.3-3.3,1.8-5.1,4.6-5.4
			c0.8-0.1,1.9,0,2.7,0.4c-0.1,0.4-0.1,0.9-0.2,1.3l-0.2,0c-0.5-0.6-1.4-1.1-2.2-1c-2.1,0.2-2.8,2.3-2.6,4.2
			c0.2,2.2,1.4,3.6,3.4,3.4c0.8-0.1,1.7-0.6,2.2-1.2L49.1,77z"/>
		<path class="st0" d="M56.4,76.1c-0.3,0.1-0.6,0.2-0.9,0.3c-0.3,0.1-0.6,0.3-0.9,0.4l-2.9-7.4c-0.9,0.3-1.6,0.7-2.2,1
			c0-0.2-0.1-0.4-0.1-0.5c-0.1-0.2-0.2-0.3-0.3-0.5l6.2-2.4c0,0.2,0.1,0.4,0.1,0.5c0.1,0.2,0.2,0.3,0.3,0.5
			c-0.7,0.2-1.5,0.4-2.2,0.7L56.4,76.1z"/>
		<path class="st0" d="M60.4,63.5c0.1,0.2,0.2,0.3,0.3,0.5c0.1,0.1,0.2,0.3,0.4,0.4c-0.7,0.4-1.5,0.8-2.5,1.6l1.6,2.3l1.1-0.8
			c0.5-0.3,0.9-0.7,1.2-1c0.1,0.2,0.2,0.3,0.3,0.5c0.1,0.1,0.2,0.3,0.4,0.4c-0.4,0.2-0.9,0.5-1.4,0.8l-1.1,0.8l1.9,2.7
			c1.1-0.8,1.7-1.3,2.3-1.9c0.1,0.2,0.2,0.3,0.3,0.5c0.1,0.1,0.2,0.3,0.4,0.4l-4,2.8l-5.1-7.2L60.4,63.5z"/>
		<path class="st0" d="M64.4,59c1.8-2.1,4-1.8,5.6-0.5c2.3,1.8,2.4,4.5,0.7,6.5l-2.2,2.8l-6.9-5.4L64.4,59z M69.2,65.9l0.7-0.9
			c1.1-1.4,1.2-3-1.1-4.9c-1.9-1.5-3.4-1.2-4.5,0.2l-0.8,1L69.2,65.9z"/>
	</g>
	<polygon class="st0" points="28.2,50.9 30.2,51.3 29.5,49.5 	"/>
	<path class="st0" d="M42.9,54.1c-0.4-0.3-0.5-0.7-0.4-1.2c0.1-0.5,0.3-0.8,0.8-1c0.4-0.2,1-0.2,1.7-0.1c0.7,0.1,1.2,0.3,1.5,0.7
		c0.3,0.3,0.5,0.7,0.4,1.2c-0.1,0.5-0.3,0.8-0.8,1c-0.4,0.2-1,0.2-1.7,0.1C43.7,54.6,43.2,54.4,42.9,54.1z"/>
	<path class="st0" d="M38.9,42.7c8,8.4,19,7,19,7l-2.3,12.7l-34-6L29.1,14l6.7,1.2C30.8,24.3,30.8,34.3,38.9,42.7z M33.8,50l2.4,0.4
		l-0.6,3.4l1.7,0.3l0.6-3.4l2.4,0.4l0.1-0.7l-6.6-1.2L33.8,50z M55.2,57.3l0.1-0.7l-4-0.7l0.6-3.4l-1.7-0.3l-0.7,4.1L55.2,57.3z
		 M27.6,51.5l3,0.5L31,53l1.8,0.3l-2.1-4.6l-1.9-0.4l-3.6,3.6l1.8,0.4L27.6,51.5z M44.3,55.6c0.9,0.1,4.1,0.5,4.3-1.6
		c0.2-2.4-4-2.8-4-2.8s-3-0.7-3.8,1.3C40.1,54.3,43.4,55.5,44.3,55.6z"/>
</g>
<g>
	<path class="st0" d="M36.1,4.6l4.3,0.8l-0.2,1.2l-3.3-0.6L36,8l0,0c0.4-0.3,1.1-0.4,1.6-0.3c1.6,0.3,2.4,1.7,2.1,3.2
		c-0.2,1.3-1.4,2.8-3.4,2.4c-1.6-0.3-2.7-1.4-2.4-3l1.3,0.2c-0.1,0.9,0.4,1.5,1.3,1.7c1.1,0.2,1.7-0.5,1.9-1.5
		c0.2-0.9-0.2-1.8-1.2-2c-0.6-0.1-1.2,0-1.5,0.5l-1.3-0.2L36.1,4.6z"/>
	<path class="st0" d="M41.9,12c-0.1,0.7,0.3,1.2,1,1.4c1.5,0.3,2-1.4,2.2-2.5l0,0c-0.5,0.6-1.2,0.8-2,0.7c-1.6-0.3-2.4-1.6-2.1-3.3
		c0.3-1.6,1.6-2.6,3.4-2.3c2.3,0.4,2.6,2.5,2.1,4.9c-0.4,2-1.6,4.1-3.9,3.7c-1.3-0.2-2.3-1.4-2.1-2.7L41.9,12z M42.4,8.5
		c-0.2,0.9,0.1,1.8,1.1,2c1,0.2,1.7-0.5,1.8-1.5c0.2-0.9-0.2-1.8-1.2-2C43.2,6.9,42.6,7.6,42.4,8.5z"/>
	<path class="st0" d="M47,12.6c0.2-1,0.9-1.7,1.9-1.7l0,0c-0.7-0.4-1-1.1-0.9-1.9c0.3-1.4,1.3-2.1,3-1.8c1.6,0.3,2.4,1.3,2.2,2.7
		c-0.1,0.8-0.7,1.3-1.5,1.5l0,0c0.9,0.4,1.3,1.3,1.1,2.3c-0.3,1.6-1.7,2.4-3.4,2.1C47.8,15.4,46.7,14.2,47,12.6z M51.5,13.4
		c0.2-0.9-0.4-1.6-1.3-1.7c-0.9-0.2-1.7,0.3-1.8,1.2c-0.2,1,0.4,1.7,1.3,1.8C50.6,14.8,51.3,14.4,51.5,13.4z M49.3,9.2
		c-0.1,0.8,0.3,1.3,1.1,1.5c0.7,0.1,1.4-0.2,1.5-1c0.2-0.8-0.3-1.4-1.1-1.5C50.1,8.1,49.5,8.4,49.3,9.2z"/>
	<path class="st0" d="M55.8,8.2L60,9l-0.2,1.2l-3.3-0.6l-0.8,2l0,0c0.4-0.3,1.1-0.4,1.6-0.3c1.6,0.3,2.4,1.7,2.1,3.2
		c-0.2,1.3-1.4,2.8-3.4,2.4c-1.6-0.3-2.7-1.4-2.4-3l1.3,0.2c-0.1,0.9,0.4,1.5,1.3,1.7c1.1,0.2,1.7-0.5,1.9-1.5
		c0.2-0.9-0.2-1.8-1.2-2c-0.6-0.1-1.2,0-1.5,0.5L54,12.5L55.8,8.2z"/>
</g>
</svg>
