<svg xmlns="http://www.w3.org/2000/svg" width="369.5" height="53" viewBox="0 0 369.5 53"><defs><style>.a{fill:#fff;}</style></defs><title>partner</title><path class="a" d="M343.5,20.7c-8-2.2-10-3.4-10-6,0-2.9,2.7-4.5,7.7-4.5a24,24,0,0,1,13.2,4l.4.3,5.9-9-.3-.3c-.2-.2-5.8-5.3-19.2-5.3-11.2,0-18.3,4.6-19.6,12.4C317,4.7,308.6,0,298.2,0c-12.1,0-21.4,6.4-25.1,16.4C269.3,6.3,259.7.1,246.8.1H225.9V41.6L204.6.1h-2.4L183.4,36.8a11.81,11.81,0,0,0-8.1-11v-.5a11.29,11.29,0,0,0,6.6-10.7c0-9.3-7-14.6-19.3-14.6H137.2V51.1L124.8,34.7v-.3c6.4-3.2,9.8-8.7,9.8-16.1C134.6,6.8,126.5,0,112.9,0h-24V41.6L67.5.1H65.1L46.2,36.8a11.81,11.81,0,0,0-8.1-11v-.5a11.29,11.29,0,0,0,6.6-10.7C44.7,5.3,37.7,0,25.4,0H0V52.8H26.1c5.6,0,10.2-1.1,13.6-3.3L38,52.8H51l3.3-7.1H78.5l3.4,7.1h18.6V37.1H113l11.5,15.8h38.7c5.6,0,10.2-1.1,13.6-3.3l-1.7,3.3h13l3.3-7.1h24.2l3.4,7.1h28c12.9,0,22.5-6.3,26.3-16.4,3.7,10,13,16.4,25.1,16.4,15.8,0,26.9-10.9,26.9-26.5a16.2,16.2,0,0,0-.1-2.2c2.8,2.7,7.3,4.7,13.7,6.5,8.9,2.5,10.5,4.1,10.5,6.9,0,3.3-2.8,5.1-8,5.1a26,26,0,0,1-12.9-3.8,29.42,29.42,0,0,1-5.5,9c3,1.9,9.1,4.9,18.6,4.9,12.6,0,20.1-6,20.1-16.2C361.6,28.8,356.3,24.1,343.5,20.7ZM11.4,10.2H25.2c4.8,0,7.5,2.1,7.5,5.8s-2.9,5.8-7.5,5.8H11.4Zm15,32.6h-15V30.5H26.2c4.6,0,7.9,2.5,7.9,6.1S31,42.8,26.4,42.8ZM58.2,37l8-17.1h.1L74,36.7l.2.4h-16Zm54.5-9.7H100.3V10.2h12.1c6.7,0,10.3,3,10.3,8.6C122.7,25.8,117.3,27.3,112.7,27.3Zm35.8-17.1h13.8c4.8,0,7.5,2.1,7.5,5.8s-2.9,5.8-7.5,5.8H148.6V10.2Zm15,32.6h-15V30.5h14.8c4.6,0,7.9,2.5,7.9,6.1S168.1,42.8,163.5,42.8ZM195.3,37l8-17.1h.1l7.7,16.7.2.4Zm50.8,5.8h-8.8V10.2h8.8c10.5,0,17,6.2,17,16.3S256.6,42.8,246.1,42.8Zm60.5-5.7a33.35,33.35,0,0,0-6.2-.6h-.8a74.49,74.49,0,0,1-1.2,9.9l-.3,1.3-.3-1.3c0-.1-.6-3.2-1.1-9.6a18.78,18.78,0,0,0-6.5,1.8l-.4.2v-.4c-.7-11.7-11.3-25.3-11.4-25.5l-.5-.6.7.2c6.9,1.7,9.4,4.7,9.5,4.8l.7.8-1-.4a4.64,4.64,0,0,0-1.9-.4h-.5c6.2,8.4,7,15.4,7.1,16.9a24.33,24.33,0,0,1,3.8-.3h.1c-.2-3.6-.3-8.1-.3-13.3v-.3l.3.1a6.45,6.45,0,0,0,1.6.2,3.61,3.61,0,0,0,2.4-.7,32.26,32.26,0,0,1-2.4-4.5,12.64,12.64,0,0,1-3.8,4.2l-1.1.7.8-1.1a28.66,28.66,0,0,0,3.9-11.8l.1-1.3.4,1.2A40.84,40.84,0,0,0,305,19.7l.1.1-.1.2c-.1.1-1.8,3.5-5,4,0,1,0,5.2-.3,10.1a17.16,17.16,0,0,1,7,2.4l1,.7Zm11.5-24.2a115.69,115.69,0,0,0-11.4,19.3l-.5,1V32.1a29,29,0,0,1,4.7-14.8h-.4a6.82,6.82,0,0,0-2,.4l-1,.4.7-.8c.1-.1,2.9-3.2,9.5-4.8l.7-.2Z" transform="translate(0 0.1)"/><path class="a" d="M363.5,6.1a3.51,3.51,0,0,1,1.7-1.7,2.54,2.54,0,0,1,1.2-.2,5,5,0,0,1,1.2.2,3.51,3.51,0,0,1,1.7,1.7,2.54,2.54,0,0,1,.2,1.2,4.3,4.3,0,0,1-.2,1.2,3.51,3.51,0,0,1-1.7,1.7,2.54,2.54,0,0,1-1.2.2,5,5,0,0,1-1.2-.2,3.51,3.51,0,0,1-1.7-1.7,2.54,2.54,0,0,1-.2-1.2A5,5,0,0,1,363.5,6.1Zm.5,2.3a2.18,2.18,0,0,0,.5.8,5.55,5.55,0,0,0,.8.6,3.55,3.55,0,0,0,1,.2,3,3,0,0,0,1-.2,1.56,1.56,0,0,0,.8-.6,2.18,2.18,0,0,0,.5-.8,3.59,3.59,0,0,0,.2-1.1,3,3,0,0,0-.2-1,2.18,2.18,0,0,0-.5-.8,5.55,5.55,0,0,0-.8-.6,2.6,2.6,0,0,0-2,0,1.56,1.56,0,0,0-.8.6,2.18,2.18,0,0,0-.5.8,3.55,3.55,0,0,0-.2,1A4.25,4.25,0,0,0,364,8.4Zm2.6-2.9a1.69,1.69,0,0,1,1,.3,1,1,0,0,1,.3.8.78.78,0,0,1-.3.7c-.2.2-.4.2-.7.3l1,1.6h-.6l-1-1.6h-.6V9.2h-.6V5.5Zm-.3,1.6h.4A.37.37,0,0,0,367,7a.22.22,0,0,0,.2-.2.37.37,0,0,0,.1-.3.37.37,0,0,0-.1-.3c0-.1-.1-.1-.2-.2h-1.2V7.2l.5-.1Z" transform="translate(0 0.1)"/></svg>